<?xml version="1.0" encoding="UTF-8" standalone="no"?>
<svg width="83px" height="20px" viewBox="0 0 83 20" version="1.1" xmlns="http://www.w3.org/2000/svg" xmlns:xlink="http://www.w3.org/1999/xlink">
    <!-- Generator: Sketch 3.8.3 (29802) - http://www.bohemiancoding.com/sketch -->
    <title>logo</title>
    <desc>Created with Sketch.</desc>
    <defs></defs>
    <g id="Page-1" stroke="none" stroke-width="1" fill="none" fill-rule="evenodd">
        <g id="logo" fill="#000000">
            <path d="M10.984,6.424 C10.6319982,5.97599776 10.1720028,5.62000132 9.604,5.356 C9.03599716,5.09199868 8.48800264,4.96 7.96,4.96 C7.68799864,4.96 7.4120014,4.98399976 7.132,5.032 C6.8519986,5.08000024 6.60000112,5.17199932 6.376,5.308 C6.15199888,5.44400068 5.96400076,5.61999892 5.812,5.836 C5.65999924,6.05200108 5.584,6.32799832 5.584,6.664 C5.584,6.95200144 5.6439994,7.19199904 5.764,7.384 C5.8840006,7.57600096 6.05999884,7.74399928 6.292,7.888 C6.52400116,8.03200072 6.7999984,8.1639994 7.12,8.284 C7.4400016,8.4040006 7.799998,8.52799936 8.2,8.656 C8.77600288,8.84800096 9.37599688,9.05999884 10,9.292 C10.6240031,9.52400116 11.1919974,9.83199808 11.704,10.216 C12.2160026,10.6000019 12.6399983,11.0759972 12.976,11.644 C13.3120017,12.2120028 13.48,12.9199958 13.48,13.768 C13.48,14.7440049 13.3000018,15.5879964 12.94,16.3 C12.5799982,17.0120036 12.096003,17.5999977 11.488,18.064 C10.879997,18.5280023 10.1840039,18.8719989 9.4,19.096 C8.61599608,19.3200011 7.80800416,19.432 6.976,19.432 C5.75999392,19.432 4.58400568,19.2200021 3.448,18.796 C2.31199432,18.3719979 1.36800376,17.7680039 0.616,16.984 L3.304,14.248 C3.72000208,14.7600026 4.2679966,15.1879983 4.948,15.532 C5.6280034,15.8760017 6.30399664,16.048 6.976,16.048 C7.28000152,16.048 7.57599856,16.0160003 7.864,15.952 C8.15200144,15.8879997 8.40399892,15.7840007 8.62,15.64 C8.83600108,15.4959993 9.00799936,15.3040012 9.136,15.064 C9.26400064,14.8239988 9.328,14.5360017 9.328,14.2 C9.328,13.8799984 9.2480008,13.6080011 9.088,13.384 C8.9279992,13.1599989 8.70000148,12.9560009 8.404,12.772 C8.10799852,12.5879991 7.7400022,12.4200008 7.3,12.268 C6.8599978,12.1159992 6.3600028,11.9520009 5.8,11.776 C5.25599728,11.5999991 4.7240026,11.3920012 4.204,11.152 C3.6839974,10.9119988 3.22000204,10.6040019 2.812,10.228 C2.40399796,9.85199812 2.07600124,9.39600268 1.828,8.86 C1.57999876,8.32399732 1.456,7.67200384 1.456,6.904 C1.456,5.95999528 1.64799808,5.15200336 2.032,4.48 C2.41600192,3.80799664 2.91999688,3.25600216 3.544,2.824 C4.16800312,2.39199784 4.87199608,2.076001 5.656,1.876 C6.44000392,1.675999 7.231996,1.576 8.032,1.576 C8.9920048,1.576 9.971995,1.75199824 10.972,2.104 C11.972005,2.45600176 12.8479962,2.97599656 13.6,3.664 L10.984,6.424 Z M23.032,13.792 L22.528,13.792 C22.0959978,13.792 21.6600022,13.8119998 21.22,13.852 C20.7799978,13.8920002 20.3880017,13.9679994 20.044,14.08 C19.6999983,14.1920006 19.4160011,14.3559989 19.192,14.572 C18.9679989,14.7880011 18.856,15.0719982 18.856,15.424 C18.856,15.6480011 18.9079995,15.8399992 19.012,16 C19.1160005,16.1600008 19.2479992,16.2879995 19.408,16.384 C19.5680008,16.4800005 19.751999,16.5479998 19.96,16.588 C20.168001,16.6280002 20.367999,16.648 20.56,16.648 C21.360004,16.648 21.9719979,16.4280022 22.396,15.988 C22.8200021,15.5479978 23.032,14.9520038 23.032,14.2 L23.032,13.792 Z M15.808,8.68 C16.5120035,8.00799664 17.3319953,7.50400168 18.268,7.168 C19.2040047,6.83199832 20.1599951,6.664 21.136,6.664 C22.144005,6.664 22.9959965,6.78799876 23.692,7.036 C24.3880035,7.28400124 24.9519978,7.6679974 25.384,8.188 C25.8160022,8.7080026 26.131999,9.36399604 26.332,10.156 C26.532001,10.948004 26.632,11.8879946 26.632,12.976 L26.632,19 L23.032,19 L23.032,17.728 L22.96,17.728 C22.6559985,18.2240025 22.1960031,18.6079986 21.58,18.88 C20.9639969,19.1520014 20.2960036,19.288 19.576,19.288 C19.0959976,19.288 18.6000026,19.2240006 18.088,19.096 C17.5759974,18.9679994 17.1080021,18.7600014 16.684,18.472 C16.2599979,18.1839986 15.9120014,17.8000024 15.64,17.32 C15.3679986,16.8399976 15.232,16.2480035 15.232,15.544 C15.232,14.6799957 15.4679976,13.9840026 15.94,13.456 C16.4120024,12.9279974 17.0199963,12.5200014 17.764,12.232 C18.5080037,11.9439986 19.3359954,11.7520005 20.248,11.656 C21.1600046,11.5599995 22.0479957,11.512 22.912,11.512 L22.912,11.32 C22.912,10.727997 22.7040021,10.2920014 22.288,10.012 C21.8719979,9.7319986 21.360003,9.592 20.752,9.592 C20.1919972,9.592 19.6520026,9.7119988 19.132,9.952 C18.6119974,10.1920012 18.1680018,10.4799983 17.8,10.816 L15.808,8.68 Z M33.832,3.232 C33.832,3.53600152 33.7720006,3.81999868 33.652,4.084 C33.5319994,4.34800132 33.372001,4.57599904 33.172,4.768 C32.971999,4.96000096 32.7320014,5.11199944 32.452,5.224 C32.1719986,5.33600056 31.8800015,5.392 31.576,5.392 C30.9359968,5.392 30.4000022,5.18000212 29.968,4.756 C29.5359978,4.33199788 29.32,3.82400296 29.32,3.232 C29.32,2.94399856 29.3759994,2.66800132 29.488,2.404 C29.6000006,2.13999868 29.759999,1.91200096 29.968,1.72 C30.176001,1.52799904 30.4159986,1.3720006 30.688,1.252 C30.9600014,1.1319994 31.2559984,1.072 31.576,1.072 C31.8800015,1.072 32.1719986,1.12799944 32.452,1.24 C32.7320014,1.35200056 32.971999,1.50399904 33.172,1.696 C33.372001,1.88800096 33.5319994,2.11599868 33.652,2.38 C33.7720006,2.64400132 33.832,2.92799848 33.832,3.232 L33.832,3.232 Z M29.608,19 L29.608,7.048 L33.544,7.048 L33.544,19 L29.608,19 Z M45.712,19 L45.712,17.44 L45.664,17.44 C45.2799981,18.048003 44.7320036,18.5159984 44.02,18.844 C43.3079964,19.1720016 42.552004,19.336 41.752,19.336 C40.8559955,19.336 40.0560035,19.1600018 39.352,18.808 C38.6479965,18.4559982 38.0520024,17.9880029 37.564,17.404 C37.0759976,16.8199971 36.7040013,16.1440038 36.448,15.376 C36.1919987,14.6079962 36.064,13.8080042 36.064,12.976 C36.064,12.1439958 36.1959987,11.3480038 36.46,10.588 C36.7240013,9.8279962 37.0999976,9.16000288 37.588,8.584 C38.0760024,8.00799712 38.6679965,7.55200168 39.364,7.216 C40.0600035,6.87999832 40.8399957,6.712 41.704,6.712 C42.5840044,6.712 43.327997,6.87999832 43.936,7.216 C44.544003,7.55200168 45.0159983,7.919998 45.352,8.32 L45.4,8.32 L45.4,0.856 L49.336,0.856 L49.336,19 L45.712,19 Z M45.568,13 C45.568,12.6159981 45.5000007,12.2400018 45.364,11.872 C45.2279993,11.5039982 45.0360012,11.1760014 44.788,10.888 C44.5399988,10.5999986 44.2400018,10.3680009 43.888,10.192 C43.5359982,10.0159991 43.1360022,9.928 42.688,9.928 C42.2239977,9.928 41.8160018,10.0159991 41.464,10.192 C41.1119982,10.3680009 40.8160012,10.5959986 40.576,10.876 C40.3359988,11.1560014 40.1560006,11.4799982 40.036,11.848 C39.9159994,12.2160018 39.856,12.5919981 39.856,12.976 C39.856,13.3600019 39.9159994,13.7399981 40.036,14.116 C40.1560006,14.4920019 40.3359988,14.8239986 40.576,15.112 C40.8160012,15.4000014 41.1119982,15.6319991 41.464,15.808 C41.8160018,15.9840009 42.2239977,16.072 42.688,16.072 C43.1360022,16.072 43.5359982,15.9840009 43.888,15.808 C44.2400018,15.6319991 44.5399988,15.4000014 44.788,15.112 C45.0360012,14.8239986 45.2279993,14.4960018 45.364,14.128 C45.5000007,13.7599982 45.568,13.3840019 45.568,13 L45.568,13 Z M61.504,19 L61.504,17.44 L61.456,17.44 C61.0719981,18.048003 60.5240036,18.5159984 59.812,18.844 C59.0999964,19.1720016 58.344004,19.336 57.544,19.336 C56.6479955,19.336 55.8480035,19.1600018 55.144,18.808 C54.4399965,18.4559982 53.8440024,17.9880029 53.356,17.404 C52.8679976,16.8199971 52.4960013,16.1440038 52.24,15.376 C51.9839987,14.6079962 51.856,13.8080042 51.856,12.976 C51.856,12.1439958 51.9879987,11.3480038 52.252,10.588 C52.5160013,9.8279962 52.8919976,9.16000288 53.38,8.584 C53.8680024,8.00799712 54.4599965,7.55200168 55.156,7.216 C55.8520035,6.87999832 56.6319957,6.712 57.496,6.712 C58.3760044,6.712 59.119997,6.87999832 59.728,7.216 C60.336003,7.55200168 60.8079983,7.919998 61.144,8.32 L61.192,8.32 L61.192,0.856 L65.128,0.856 L65.128,19 L61.504,19 Z M61.36,13 C61.36,12.6159981 61.2920007,12.2400018 61.156,11.872 C61.0199993,11.5039982 60.8280012,11.1760014 60.58,10.888 C60.3319988,10.5999986 60.0320018,10.3680009 59.68,10.192 C59.3279982,10.0159991 58.9280022,9.928 58.48,9.928 C58.0159977,9.928 57.6080018,10.0159991 57.256,10.192 C56.9039982,10.3680009 56.6080012,10.5959986 56.368,10.876 C56.1279988,11.1560014 55.9480006,11.4799982 55.828,11.848 C55.7079994,12.2160018 55.648,12.5919981 55.648,12.976 C55.648,13.3600019 55.7079994,13.7399981 55.828,14.116 C55.9480006,14.4920019 56.1279988,14.8239986 56.368,15.112 C56.6080012,15.4000014 56.9039982,15.6319991 57.256,15.808 C57.6080018,15.9840009 58.0159977,16.072 58.48,16.072 C58.9280022,16.072 59.3279982,15.9840009 59.68,15.808 C60.0320018,15.6319991 60.3319988,15.4000014 60.58,15.112 C60.8280012,14.8239986 61.0199993,14.4960018 61.156,14.128 C61.2920007,13.7599982 61.36,13.3840019 61.36,13 L61.36,13 Z M72.52,3.232 C72.52,3.53600152 72.4600006,3.81999868 72.34,4.084 C72.2199994,4.34800132 72.060001,4.57599904 71.86,4.768 C71.659999,4.96000096 71.4200014,5.11199944 71.14,5.224 C70.8599986,5.33600056 70.5680015,5.392 70.264,5.392 C69.6239968,5.392 69.0880022,5.18000212 68.656,4.756 C68.2239978,4.33199788 68.008,3.82400296 68.008,3.232 C68.008,2.94399856 68.0639994,2.66800132 68.176,2.404 C68.2880006,2.13999868 68.447999,1.91200096 68.656,1.72 C68.864001,1.52799904 69.1039986,1.3720006 69.376,1.252 C69.6480014,1.1319994 69.9439984,1.072 70.264,1.072 C70.5680015,1.072 70.8599986,1.12799944 71.14,1.24 C71.4200014,1.35200056 71.659999,1.50399904 71.86,1.696 C72.060001,1.88800096 72.2199994,2.11599868 72.34,2.38 C72.4600006,2.64400132 72.52,2.92799848 72.52,3.232 L72.52,3.232 Z M68.296,19 L68.296,7.048 L72.232,7.048 L72.232,19 L68.296,19 Z M79.624,10 L79.624,14.56 C79.624,15.1200028 79.7319989,15.5399986 79.948,15.82 C80.1640011,16.1000014 80.5519972,16.24 81.112,16.24 C81.304001,16.24 81.5079989,16.2240002 81.724,16.192 C81.9400011,16.1599998 82.1199993,16.1120003 82.264,16.048 L82.312,18.928 C82.0399986,19.0240005 81.6960021,19.1079996 81.28,19.18 C80.8639979,19.2520004 80.4480021,19.288 80.032,19.288 C79.231996,19.288 78.5600027,19.188001 78.016,18.988 C77.4719973,18.787999 77.0360016,18.5000019 76.708,18.124 C76.3799984,17.7479981 76.1440007,17.3000026 76,16.78 C75.8559993,16.2599974 75.784,15.6800032 75.784,15.04 L75.784,10 L73.864,10 L73.864,7.048 L75.76,7.048 L75.76,3.904 L79.624,3.904 L79.624,7.048 L82.432,7.048 L82.432,10 L79.624,10 Z" id="Saiddit"></path>
        </g>
    </g>
</svg>